<svg width="106" height="106" viewBox="0 0 106 106" fill="none" xmlns="http://www.w3.org/2000/svg">
<g clip-path="url(#clip0_13_29)">
<path fill-rule="evenodd" clip-rule="evenodd" d="M83.9167 48.5833C91.2346 48.5833 97.1667 54.5154 97.1667 61.8333C97.1667 65.7575 95.4609 69.2834 92.75 71.7094V93.5936C92.75 95.2353 91.0222 96.3028 89.5541 95.5687L83.9167 92.75L78.2792 95.5687C76.8111 96.3028 75.0833 95.2353 75.0833 93.5936V71.7094C72.3728 69.2834 70.6667 65.7575 70.6667 61.8333C70.6667 54.5154 76.5987 48.5833 83.9167 48.5833ZM88.3333 17.6667C93.212 17.6667 97.1667 21.6215 97.1667 26.5V44.165C93.4757 41.3927 88.8881 39.75 83.9167 39.75C71.7205 39.75 61.8333 49.6372 61.8333 61.8333C61.8333 66.8038 63.4821 71.3963 66.25 75.0838V88.3333H17.6667C12.7881 88.3333 8.83333 84.3786 8.83333 79.5V26.5C8.83333 21.6215 12.7881 17.6667 17.6667 17.6667H88.3333ZM35.3333 57.4167H26.5C24.0608 57.4167 22.0833 59.394 22.0833 61.8333C22.0833 64.2727 24.0608 66.25 26.5 66.25H35.3333C37.7726 66.25 39.75 64.2727 39.75 61.8333C39.75 59.394 37.7726 57.4167 35.3333 57.4167ZM53 39.75H26.5C24.0608 39.75 22.0833 41.7274 22.0833 44.1667C22.0833 46.4318 23.7884 48.2985 25.9849 48.5536L26.5 48.5833H53C55.4393 48.5833 57.4167 46.606 57.4167 44.1667C57.4167 41.9017 55.7117 40.0348 53.5151 39.7797L53 39.75Z" fill="#fffafb"/>
</g>
<defs>
<clipPath id="clip0_13_29">
<rect width="106" height="106" fill="white"/>
</clipPath>
</defs>
</svg>
