<svg width="106" height="106" viewBox="0 0 106 106" fill="none" xmlns="http://www.w3.org/2000/svg">
<path d="M69.218 54.59C66.2305 54.5795 63.3071 55.4552 60.8173 57.1062C58.3275 58.7573 56.3832 61.1095 55.2302 63.8656C54.0773 66.6216 53.7675 69.6577 54.3401 72.5898C54.9126 75.5219 56.3418 78.2183 58.4468 80.3382C60.5519 82.4581 63.2383 83.9061 66.1663 84.4992C69.0943 85.0923 72.1324 84.8039 74.8965 83.6703C77.6606 82.5368 80.0264 80.609 81.6949 78.1309C83.3634 75.6527 84.2595 72.7355 84.27 69.748C84.2646 65.7478 82.6803 61.9115 79.8617 59.0731C77.0431 56.2346 73.218 54.6235 69.218 54.59ZM71.868 71.02C71.4697 71.0208 71.0745 70.949 70.702 70.808L64.978 76.532C64.6668 76.8447 64.2522 77.0331 63.812 77.062C63.282 77.062 62.858 76.956 62.646 76.532C62.3374 76.1801 62.1673 75.728 62.1673 75.26C62.1673 74.792 62.3374 74.3399 62.646 73.988L68.37 68.264C68.1545 67.5771 68.0984 66.8501 68.2059 66.1383C68.3134 65.4264 68.5817 64.7485 68.9905 64.1558C69.3992 63.5632 69.9376 63.0715 70.5647 62.718C71.1919 62.3646 71.8914 62.1587 72.61 62.116C73.0083 62.1152 73.4035 62.187 73.776 62.328C73.988 62.328 73.988 62.54 73.882 62.752L71.232 65.296C71.1817 65.3323 71.1407 65.3801 71.1124 65.4354C71.0841 65.4907 71.0694 65.5519 71.0694 65.614C71.0694 65.6761 71.0841 65.7373 71.1124 65.7926C71.1407 65.8479 71.1817 65.8957 71.232 65.932L72.928 67.628C72.9756 67.6787 73.0331 67.7191 73.0969 67.7467C73.1607 67.7744 73.2295 67.7886 73.299 67.7886C73.3685 67.7886 73.4373 67.7744 73.5011 67.7467C73.565 67.7191 73.6224 67.6787 73.67 67.628L76.214 65.084C76.32 64.978 76.744 64.978 76.744 65.19C76.8479 65.5719 76.9188 65.962 76.956 66.356C76.9476 67.0025 76.8071 67.6405 76.5429 68.2306C76.2787 68.8208 75.8965 69.3506 75.4199 69.7875C74.9433 70.2244 74.3823 70.5592 73.7714 70.7711C73.1606 70.9831 72.5128 71.0678 71.868 71.02Z" fill="#fffafb"/>
<path d="M47.276 55.332C56.7013 55.332 64.342 47.6913 64.342 38.266C64.342 28.8407 56.7013 21.2 47.276 21.2C37.8507 21.2 30.21 28.8407 30.21 38.266C30.21 47.6913 37.8507 55.332 47.276 55.332Z" fill="#fffafb"/>
<path d="M51.834 84.482C54.696 84.482 53.106 82.468 53.106 82.468C50.7639 79.4957 49.279 75.9396 48.812 72.1843C48.3449 68.429 48.9134 64.6175 50.456 61.162L50.668 60.738C50.8129 60.5565 50.904 60.338 50.9308 60.1073C50.9576 59.8767 50.9191 59.6431 50.8197 59.4332C50.7203 59.2233 50.5639 59.0456 50.3685 58.9202C50.173 58.7948 49.9462 58.7268 49.714 58.724C48.8692 58.6335 48.0194 58.5981 47.17 58.618C40.9365 58.6392 34.9178 60.8982 30.2097 64.9837C25.5016 69.0692 22.4172 74.7096 21.518 80.878C21.518 82.15 21.942 84.588 25.97 84.588H51.304C51.4746 84.527 51.6531 84.4913 51.834 84.482Z" fill="#fffafb"/>
</svg>
