<svg width="800" height="556" viewBox="0 0 800 556" fill="none" xmlns="http://www.w3.org/2000/svg">
<path d="M800 16.4422V539.556C800 548.45 792.781 555.669 783.887 555.669H16.1125C7.21875 555.669 0 548.452 0 539.558V16.4422C0 7.54843 7.21875 0.329681 16.1125 0.329681H783.887C792.781 0.331244 800 7.54843 800 16.4422Z" fill="#FFF5F5"/>
<path d="M800 16.4422V539.556C800 548.45 792.781 555.669 783.887 555.669H747.312C756.206 555.669 763.425 548.45 763.425 539.556V16.4422C763.425 7.54843 756.206 0.329681 747.312 0.329681H783.887C792.781 0.331244 800 7.54843 800 16.4422Z" fill="#EFE2DD"/>
<path d="M92.15 128.989C66.4 128.989 45.4515 108.041 45.4515 82.2906C45.4515 75.6219 50.8562 70.2187 57.5234 70.2187C64.1906 70.2187 69.5953 75.6234 69.5953 82.2906C69.5953 94.7281 79.7125 104.845 92.15 104.845C104.587 104.845 114.705 94.7281 114.705 82.2906C114.705 69.8531 104.587 59.7344 92.15 59.7344C85.4812 59.7344 80.0781 54.3297 80.0781 47.6625C80.0781 40.9937 85.4828 35.5906 92.15 35.5906H220.85C227.519 35.5906 232.922 40.9953 232.922 47.6625C232.922 54.3312 227.517 59.7344 220.85 59.7344H133.033C136.737 66.425 138.848 74.1156 138.848 82.2906C138.848 108.039 117.9 128.989 92.15 128.989Z" fill="#FFC26D"/>
<path d="M220.85 520.411H92.15C85.4812 520.411 80.0781 515.006 80.0781 508.339C80.0781 501.672 85.4828 496.267 92.15 496.267C104.587 496.267 114.705 486.148 114.705 473.711C114.705 461.273 104.587 451.156 92.15 451.156C79.7125 451.156 69.5953 461.273 69.5953 473.711C69.5953 480.38 64.1906 485.783 57.5234 485.783C50.8562 485.783 45.4515 480.378 45.4515 473.711C45.4515 447.961 66.4 427.012 92.15 427.012C117.9 427.012 138.848 447.961 138.848 473.711C138.848 481.884 136.737 489.577 133.033 496.267H220.85C227.519 496.267 232.922 501.672 232.922 508.339C232.922 515.006 227.519 520.411 220.85 520.411Z" fill="#FFC26D"/>
<path d="M707.85 128.989C682.1 128.989 661.152 108.041 661.152 82.2906C661.152 74.1172 663.263 66.425 666.967 59.7344H579.15C572.481 59.7344 567.078 54.3297 567.078 47.6625C567.078 40.9937 572.483 35.5906 579.15 35.5906H707.85C714.519 35.5906 719.922 40.9953 719.922 47.6625C719.922 54.3312 714.517 59.7344 707.85 59.7344C695.412 59.7344 685.295 69.8531 685.295 82.2906C685.295 94.7281 695.412 104.845 707.85 104.845C720.287 104.845 730.405 94.7281 730.405 82.2906C730.405 75.6219 735.809 70.2187 742.477 70.2187C749.144 70.2187 754.548 75.6234 754.548 82.2906C754.548 108.039 733.6 128.989 707.85 128.989Z" fill="#FFC26D"/>
<path d="M707.85 520.411H579.15C572.481 520.411 567.078 515.006 567.078 508.339C567.078 501.672 572.483 496.267 579.15 496.267H666.967C663.263 489.577 661.152 481.886 661.152 473.711C661.152 447.961 682.1 427.012 707.85 427.012C733.6 427.012 754.548 447.961 754.548 473.711C754.548 480.38 749.144 485.783 742.477 485.783C735.809 485.783 730.405 480.378 730.405 473.711C730.405 461.273 720.287 451.156 707.85 451.156C695.412 451.156 685.295 461.273 685.295 473.711C685.295 486.148 695.412 496.267 707.85 496.267C714.519 496.267 719.922 501.672 719.922 508.339C719.922 515.006 714.519 520.411 707.85 520.411Z" fill="#FFC26D"/>
<path d="M306.305 259.373V407.075C306.305 420.081 291.817 427.856 280.969 420.677L241.645 394.6L202.322 420.677C191.473 427.856 176.986 420.081 176.986 407.075V259.373C176.986 250.375 184.294 243.067 193.292 243.067H289.984C298.997 243.067 306.305 250.375 306.305 259.373Z" fill="#F37D7E"/>
<path d="M306.305 259.373V311.527C288.083 324.613 265.741 332.323 241.645 332.323C217.55 332.323 195.206 324.614 176.986 311.527V259.373C176.986 250.375 184.294 243.067 193.292 243.067H289.984C298.997 243.067 306.305 250.375 306.305 259.373Z" fill="#ED6264"/>
<path d="M241.644 309.794C290.579 309.794 330.248 270.124 330.248 221.189C330.248 172.254 290.579 132.584 241.644 132.584C192.709 132.584 153.039 172.254 153.039 221.189C153.039 270.124 192.709 309.794 241.644 309.794Z" fill="#FFC26D"/>
<path d="M330.248 221.195C330.248 270.125 290.573 309.8 241.644 309.8C235.969 309.8 230.408 309.269 225.022 308.236C266.019 300.466 297.02 264.45 297.02 221.195C297.02 177.925 266.019 141.925 225.022 134.155C230.406 133.123 235.969 132.591 241.644 132.591C290.572 132.591 330.248 172.25 330.248 221.195Z" fill="#FFA730"/>
<path d="M261.964 239.595H257.217V191.295C257.217 187.111 255.052 183.225 251.492 181.027C247.93 178.828 243.487 178.628 239.745 180.498L220.162 190.291C214.2 193.272 211.783 200.523 214.764 206.488C217.744 212.452 224.995 214.866 230.961 211.886L233.072 210.83V239.597H228.325C221.656 239.597 216.253 245.002 216.253 251.669C216.253 258.336 221.658 263.741 228.325 263.741H261.964C268.633 263.741 274.036 258.336 274.036 251.669C274.036 245.002 268.633 239.595 261.964 239.595Z" fill="#FFA730"/>
<path d="M630.866 243.064H417.795C408.905 243.064 401.698 235.858 401.698 226.967V195.522C401.698 186.631 408.905 179.425 417.795 179.425H630.866C639.756 179.425 646.963 186.631 646.963 195.522V226.967C646.963 235.856 639.755 243.064 630.866 243.064Z" fill="#65BAFC"/>
<path d="M646.97 195.522V226.975C646.97 235.861 639.759 243.072 630.873 243.072H602.881C611.767 243.072 618.978 235.861 618.978 226.975V195.522C618.978 186.636 611.767 179.425 602.881 179.425H630.873C639.758 179.425 646.97 186.636 646.97 195.522Z" fill="#2EA8FC"/>
<path d="M646.961 304.559H401.7C395.031 304.559 389.628 299.155 389.628 292.488C389.628 285.82 395.033 280.416 401.7 280.416H646.963C653.631 280.416 659.034 285.82 659.034 292.488C659.034 299.155 653.63 304.559 646.961 304.559Z" fill="#E0D3CE"/>
<path d="M646.961 355.18H401.7C395.031 355.18 389.628 349.775 389.628 343.108C389.628 336.441 395.033 331.036 401.7 331.036H646.963C653.631 331.036 659.034 336.441 659.034 343.108C659.034 349.775 653.63 355.18 646.961 355.18Z" fill="#E0D3CE"/>
<path d="M505.058 405.802H401.698C395.03 405.802 389.627 400.397 389.627 393.73C389.627 387.062 395.031 381.658 401.698 381.658H505.058C511.727 381.658 517.13 387.062 517.13 393.73C517.13 400.397 511.727 405.802 505.058 405.802Z" fill="#E0D3CE"/>
</svg>
