<svg width="106" height="106" viewBox="0 0 755 766" fill="none" xmlns="http://www.w3.org/2000/svg">
<path d="M405 66.6667C405 66.6667 482.783 73.7377 581.777 172.733C680.77 271.728 687.843 349.51 687.843 349.51" stroke="#fffafb" stroke-width="50" stroke-linecap="round"/>
<path d="M428.567 184.521C428.567 184.521 461.567 193.95 511.063 243.447C560.56 292.945 569.99 325.943 569.99 325.943" stroke="#fffafb" stroke-width="50" stroke-linecap="round"/>
<path d="M80.0617 230.858C79.3217 217.071 67.545 206.494 53.7577 207.234C39.9704 207.974 29.3937 219.751 30.1337 233.538L80.0617 230.858ZM112.257 103.071C102.748 113.082 103.155 128.906 113.166 138.415C123.177 147.923 139.001 147.516 148.51 137.505L112.257 103.071ZM310.47 660.41C322.16 667.757 337.593 664.237 344.94 652.547C352.287 640.857 348.763 625.423 337.073 618.077L310.47 660.41ZM458.767 668.613C445.253 665.783 432.003 674.447 429.173 687.96C426.343 701.473 435.003 714.723 448.52 717.553L458.767 668.613ZM476.487 518.123L491.667 502.14L455.413 467.707L440.233 483.69L476.487 518.123ZM541.623 495.41L605.307 532.067L630.25 488.733L566.567 452.077L541.623 495.41ZM617.597 608.063L570.247 657.917L606.5 692.35L653.85 642.5L617.597 608.063ZM233.64 531.957C104.436 395.927 82.763 281.185 80.0617 230.858L30.1337 233.538C33.442 295.179 59.6147 421.343 197.387 566.39L233.64 531.957ZM279.485 310.72L289.047 300.654L252.792 266.22L243.232 276.285L279.485 310.72ZM296.557 175.337L254.523 115.888L213.697 144.753L255.73 204.203L296.557 175.337ZM261.358 293.502C243.232 276.285 243.209 276.31 243.185 276.334C243.178 276.343 243.154 276.367 243.138 276.384C243.107 276.418 243.074 276.452 243.042 276.488C242.976 276.558 242.908 276.632 242.838 276.709C242.698 276.863 242.55 277.029 242.394 277.208C242.082 277.567 241.74 277.977 241.373 278.44C240.641 279.366 239.812 280.504 238.942 281.863C237.198 284.588 235.307 288.177 233.706 292.678C230.449 301.83 228.674 313.95 230.892 329.086C235.249 358.823 254.734 398.813 305.647 452.413L341.9 417.98C294.31 367.877 282.588 337.02 280.363 321.837C279.29 314.512 280.381 310.652 280.812 309.44C281.054 308.759 281.213 308.57 281.058 308.812C280.983 308.93 280.833 309.15 280.581 309.469C280.454 309.628 280.303 309.812 280.121 310.021C280.031 310.125 279.933 310.235 279.827 310.352C279.774 310.41 279.719 310.47 279.662 310.531C279.633 310.562 279.604 310.593 279.575 310.624C279.56 310.64 279.537 310.664 279.53 310.672C279.507 310.696 279.485 310.72 261.358 293.502ZM305.647 452.413C356.407 505.857 394.747 526.867 423.997 531.617C439.003 534.053 451.153 532.107 460.353 528.48C464.85 526.707 468.41 524.623 471.08 522.73C472.41 521.783 473.52 520.887 474.417 520.103C474.863 519.71 475.26 519.343 475.603 519.01C475.777 518.847 475.933 518.687 476.08 518.54C476.153 518.467 476.227 518.393 476.293 518.323C476.327 518.29 476.36 518.257 476.39 518.223C476.407 518.207 476.43 518.18 476.44 518.173C476.463 518.147 476.487 518.123 458.36 500.907C440.233 483.69 440.257 483.667 440.277 483.643C440.287 483.633 440.307 483.61 440.323 483.593C440.353 483.563 440.383 483.533 440.41 483.503C440.47 483.443 440.527 483.383 440.583 483.327C440.693 483.217 440.8 483.11 440.9 483.013C441.103 482.82 441.283 482.653 441.443 482.513C441.763 482.233 442 482.053 442.153 481.947C442.463 481.723 442.433 481.8 442.007 481.967C441.363 482.22 438.337 483.29 432.01 482.263C418.593 480.083 389.637 468.24 341.9 417.98L305.647 452.413ZM254.523 115.888C220.737 68.1017 153.129 60.0397 112.257 103.071L148.51 137.505C165.937 119.157 196.618 120.598 213.697 144.753L254.523 115.888ZM570.247 657.917C560.943 667.71 551.213 672.957 541.753 673.89L546.667 723.65C571.567 721.19 591.72 707.91 606.5 692.35L570.247 657.917ZM289.047 300.654C321.297 266.698 323.58 213.559 296.557 175.337L255.73 204.203C269.801 224.105 267.643 250.584 252.792 266.22L289.047 300.654ZM605.307 532.067C632.67 547.817 638.023 586.56 617.597 608.063L653.85 642.5C697.35 596.703 684.68 520.063 630.25 488.733L605.307 532.067ZM491.667 502.14C504.513 488.613 524.533 485.573 541.623 495.41L566.567 452.077C529.95 431 484.54 437.043 455.413 467.707L491.667 502.14ZM337.073 618.077C304.283 597.47 269.383 569.587 233.64 531.957L197.387 566.39C235.855 606.89 273.966 637.47 310.47 660.41L337.073 618.077ZM541.753 673.89C523.537 675.69 494.707 676.14 458.767 668.613L448.52 717.553C490.137 726.267 524.14 725.873 546.667 723.65L541.753 673.89Z" fill="#fffafb"/>
</svg>
