<svg width="106" height="106" viewBox="0 0 106 106" fill="none" xmlns="http://www.w3.org/2000/svg">
<path fill-rule="evenodd" clip-rule="evenodd" d="M48.6076 8.83334H57.3924C63.5139 8.83329 68.3824 8.83329 72.3079 9.15929C76.3284 9.49314 79.754 10.1917 82.8823 11.8169C87.7225 14.3311 91.6688 18.2775 94.1832 23.1175C95.8085 26.2462 96.5068 29.6717 96.8407 33.6921C97.1667 37.6177 97.1667 42.4861 97.1667 48.6076V57.3924C97.1667 63.5139 97.1667 68.3824 96.8407 72.3079C96.5068 76.3284 95.8085 79.754 94.1832 82.8823C91.6688 87.7225 87.7225 91.6688 82.8823 94.1832C79.754 95.8085 76.3284 96.5068 72.3079 96.8407C68.3824 97.1667 63.5139 97.1667 57.3924 97.1667H48.6076C42.4861 97.1667 37.6177 97.1667 33.6921 96.8407C29.6717 96.5068 26.2462 95.8085 23.1175 94.1832C18.2775 91.6688 14.3311 87.7225 11.8169 82.8823C10.1917 79.754 9.49315 76.3284 9.15929 72.3079C8.8333 68.3824 8.8333 63.5139 8.83334 57.3924V48.6076C8.8333 42.4861 8.8333 37.6177 9.15929 33.6921C9.49315 29.6717 10.1917 26.2462 11.8169 23.1175C14.3311 18.2775 18.2775 14.3311 23.1175 11.8169C26.2462 10.1917 29.6717 9.49314 33.6921 9.15929C37.6177 8.83329 42.4861 8.83329 48.6076 8.83334ZM34.4231 17.9623C30.9589 18.25 28.8471 18.7946 27.1895 19.6557C23.9628 21.3318 21.3318 23.9628 19.6557 27.1894C18.7946 28.8471 18.25 30.9588 17.9623 34.4231C17.6702 37.9403 17.6667 42.4419 17.6667 48.8042V57.1958C17.6667 63.558 17.6702 68.0595 17.9623 71.5769C18.25 75.0414 18.7946 77.153 19.6557 78.8106C21.3318 82.0374 23.9628 84.6684 27.1895 86.3445C28.8471 87.2053 30.9589 87.7499 34.4231 88.0379C37.9403 88.3298 42.4419 88.3333 48.8042 88.3333H57.1958C63.558 88.3333 68.0595 88.3298 71.577 88.0379C75.0414 87.7499 77.153 87.2053 78.8106 86.3445C82.0374 84.6684 84.6684 82.0374 86.3445 78.8106C87.2053 77.153 87.7499 75.0414 88.0379 71.5769C88.3298 68.0595 88.3333 63.558 88.3333 57.1958V48.8042C88.3333 42.4419 88.3298 37.9403 88.0379 34.4231C87.7499 30.9588 87.2053 28.8471 86.3445 27.1894C84.6684 23.9628 82.0374 21.3318 78.8106 19.6557C77.153 18.7946 75.0414 18.25 71.577 17.9623C68.0595 17.6702 63.558 17.6667 57.1958 17.6667H48.8042C42.4419 17.6667 37.9403 17.6702 34.4231 17.9623ZM52.2421 29.845C54.6814 29.845 56.6588 31.8224 56.6588 34.2617V56.1999L72.2359 62.1217C74.5162 62.9883 75.6619 65.5394 74.7949 67.8192C73.9284 70.0996 71.3773 71.2453 69.0974 70.3783L50.6729 63.3748C48.9588 62.7229 47.8254 61.0798 47.8254 59.246V34.2617C47.8254 31.8224 49.8028 29.845 52.2421 29.845Z" fill="#fffafb"/>
</svg>
