<svg width="106" height="106" viewBox="0 0 800 800" fill="none" xmlns="http://www.w3.org/2000/svg">
<path d="M283.333 416.667L350 483.333L516.667 316.667" stroke="#fffafb" stroke-width="50" stroke-linecap="round" stroke-linejoin="round"/>
<path d="M100.969 435.92C90.1067 413.193 90.1067 386.773 100.969 364.047C105.666 354.22 113.674 344.823 129.692 326.028C136.067 318.547 139.255 314.807 141.932 310.812C148.07 301.655 152.329 291.371 154.464 280.556C155.396 275.838 155.787 270.94 156.569 261.142C158.533 236.525 159.515 224.217 163.142 213.948C171.531 190.197 190.213 171.515 213.964 163.126C224.233 159.499 236.542 158.517 261.158 156.552C270.956 155.771 275.855 155.38 280.573 154.448C291.388 152.313 301.671 148.053 310.828 141.916C314.823 139.238 318.564 136.051 326.044 129.676C344.84 113.658 354.237 105.649 364.063 100.953C386.79 90.0903 413.21 90.0903 435.937 100.953C445.763 105.649 455.16 113.658 473.957 129.676C481.437 136.051 485.177 139.238 489.173 141.916C498.33 148.053 508.613 152.313 519.427 154.448C524.147 155.38 529.043 155.771 538.843 156.552C563.46 158.517 575.767 159.499 586.037 163.126C609.787 171.515 628.47 190.197 636.86 213.948M163.142 586.02C171.531 609.77 190.213 628.453 213.964 636.843C224.233 640.47 236.542 641.45 261.158 643.417C270.956 644.197 275.855 644.59 280.573 645.52C291.388 647.657 301.671 651.913 310.828 658.053C314.823 660.73 318.564 663.917 326.044 670.293C344.84 686.31 354.237 694.32 364.063 699.017C386.79 709.877 413.21 709.877 435.937 699.017C445.763 694.32 455.16 686.31 473.957 670.293C481.437 663.917 485.177 660.73 489.173 658.053C498.33 651.913 508.613 647.657 519.427 645.52C524.147 644.59 529.043 644.197 538.843 643.417C563.46 641.45 575.767 640.47 586.037 636.843C609.787 628.453 628.47 609.77 636.86 586.02C640.487 575.75 641.467 563.443 643.433 538.827C644.213 529.03 644.603 524.13 645.537 519.413C647.67 508.597 651.93 498.313 658.07 489.157C660.747 485.16 663.933 481.42 670.31 473.94C686.327 455.143 694.337 445.747 699.033 435.92C709.893 413.193 709.893 386.773 699.033 364.047" stroke="#fffafb" stroke-width="50" stroke-linecap="round"/>
</svg>
